<mxfile host="app.diagrams.net" agent="Mozilla/5.0 (X11; Linux x86_64) AppleWebKit/537.36 (KHTML, like Gecko) Chrome/127.0.0.0 Safari/537.36" version="24.7.6">
  <diagram name="Seite-1" id="9bGgukAi02uakENv-JAD">
    <mxGraphModel grid="0" page="0" gridSize="10" guides="1" tooltips="1" connect="1" arrows="1" fold="1" pageScale="1" pageWidth="827" pageHeight="1169" math="0" shadow="0">
      <root>
        <mxCell id="0" />
        <mxCell id="1" parent="0" />
        <mxCell id="79HeY_-FBw-1oCqKLXKL-1" value="&lt;font style=&quot;font-size: 18px;&quot;&gt;Minishell&lt;/font&gt;" style="rounded=0;whiteSpace=wrap;html=1;" vertex="1" parent="1">
          <mxGeometry x="-604.5" y="-140" width="194.5" height="47" as="geometry" />
        </mxCell>
        <mxCell id="lTgHTRrTy5GVN1QDPZq1-37" style="edgeStyle=orthogonalEdgeStyle;rounded=0;orthogonalLoop=1;jettySize=auto;html=1;exitX=1;exitY=0.5;exitDx=0;exitDy=0;entryX=0;entryY=0.5;entryDx=0;entryDy=0;" edge="1" parent="1" source="79HeY_-FBw-1oCqKLXKL-2" target="lTgHTRrTy5GVN1QDPZq1-31">
          <mxGeometry relative="1" as="geometry" />
        </mxCell>
        <mxCell id="79HeY_-FBw-1oCqKLXKL-2" value="Read input (readline)" style="rounded=0;whiteSpace=wrap;html=1;" vertex="1" parent="1">
          <mxGeometry x="-439" y="368" width="171" height="70" as="geometry" />
        </mxCell>
        <mxCell id="79HeY_-FBw-1oCqKLXKL-3" value="&lt;font style=&quot;font-size: 18px;&quot;&gt;Read-Eval-Print Loop (REPL)&amp;nbsp;&lt;/font&gt;" style="rounded=0;whiteSpace=wrap;html=1;" vertex="1" parent="1">
          <mxGeometry x="-598" y="279" width="296" height="47" as="geometry" />
        </mxCell>
        <mxCell id="lTgHTRrTy5GVN1QDPZq1-68" value="" style="edgeStyle=orthogonalEdgeStyle;rounded=0;orthogonalLoop=1;jettySize=auto;html=1;" edge="1" parent="1" source="79HeY_-FBw-1oCqKLXKL-4" target="lTgHTRrTy5GVN1QDPZq1-67">
          <mxGeometry relative="1" as="geometry" />
        </mxCell>
        <mxCell id="79HeY_-FBw-1oCqKLXKL-4" value="Compute input" style="shape=process;whiteSpace=wrap;html=1;backgroundOutline=1;" vertex="1" parent="1">
          <mxGeometry x="-90" y="368" width="171" height="70" as="geometry" />
        </mxCell>
        <mxCell id="lTgHTRrTy5GVN1QDPZq1-43" style="edgeStyle=orthogonalEdgeStyle;rounded=0;orthogonalLoop=1;jettySize=auto;html=1;exitX=1;exitY=0.5;exitDx=0;exitDy=0;entryX=0.5;entryY=1;entryDx=0;entryDy=0;" edge="1" parent="1" source="79HeY_-FBw-1oCqKLXKL-6" target="79HeY_-FBw-1oCqKLXKL-2">
          <mxGeometry relative="1" as="geometry">
            <Array as="points">
              <mxPoint x="605" y="403" />
              <mxPoint x="605" y="562" />
              <mxPoint x="-353" y="562" />
            </Array>
          </mxGeometry>
        </mxCell>
        <mxCell id="79HeY_-FBw-1oCqKLXKL-6" value="Print output&lt;div&gt;(printf)&lt;/div&gt;" style="rounded=0;whiteSpace=wrap;html=1;" vertex="1" parent="1">
          <mxGeometry x="363" y="368" width="171" height="70" as="geometry" />
        </mxCell>
        <mxCell id="lTgHTRrTy5GVN1QDPZq1-9" value="" style="edgeStyle=orthogonalEdgeStyle;rounded=0;orthogonalLoop=1;jettySize=auto;html=1;entryX=0;entryY=0.5;entryDx=0;entryDy=0;" edge="1" parent="1" source="lTgHTRrTy5GVN1QDPZq1-3" target="lTgHTRrTy5GVN1QDPZq1-10">
          <mxGeometry relative="1" as="geometry">
            <mxPoint x="-228.5" y="-9" as="targetPoint" />
          </mxGeometry>
        </mxCell>
        <mxCell id="lTgHTRrTy5GVN1QDPZq1-3" value="Initialize minishell&lt;div&gt;ft_init_ms&lt;/div&gt;" style="shape=process;whiteSpace=wrap;html=1;backgroundOutline=1;" vertex="1" parent="1">
          <mxGeometry x="-452.5" y="-39" width="136" height="60" as="geometry" />
        </mxCell>
        <mxCell id="lTgHTRrTy5GVN1QDPZq1-6" style="edgeStyle=orthogonalEdgeStyle;rounded=0;orthogonalLoop=1;jettySize=auto;html=1;exitX=1;exitY=0.5;exitDx=0;exitDy=0;" edge="1" parent="1" source="lTgHTRrTy5GVN1QDPZq1-4" target="lTgHTRrTy5GVN1QDPZq1-3">
          <mxGeometry relative="1" as="geometry" />
        </mxCell>
        <mxCell id="lTgHTRrTy5GVN1QDPZq1-4" value="launch &quot;./minishell&quot;" style="ellipse;whiteSpace=wrap;html=1;" vertex="1" parent="1">
          <mxGeometry x="-604.5" y="-49" width="120" height="80" as="geometry" />
        </mxCell>
        <mxCell id="lTgHTRrTy5GVN1QDPZq1-12" value="" style="edgeStyle=orthogonalEdgeStyle;rounded=0;orthogonalLoop=1;jettySize=auto;html=1;" edge="1" parent="1" source="lTgHTRrTy5GVN1QDPZq1-10" target="lTgHTRrTy5GVN1QDPZq1-11">
          <mxGeometry relative="1" as="geometry" />
        </mxCell>
        <mxCell id="lTgHTRrTy5GVN1QDPZq1-10" value="REPL&lt;div&gt;ft_repl&lt;/div&gt;" style="shape=process;whiteSpace=wrap;html=1;backgroundOutline=1;" vertex="1" parent="1">
          <mxGeometry x="-242.5" y="-39" width="120" height="60" as="geometry" />
        </mxCell>
        <mxCell id="lTgHTRrTy5GVN1QDPZq1-14" value="" style="edgeStyle=orthogonalEdgeStyle;rounded=0;orthogonalLoop=1;jettySize=auto;html=1;entryX=0;entryY=0.5;entryDx=0;entryDy=0;" edge="1" parent="1" source="lTgHTRrTy5GVN1QDPZq1-11" target="lTgHTRrTy5GVN1QDPZq1-15">
          <mxGeometry relative="1" as="geometry">
            <mxPoint x="177.5" y="-9" as="targetPoint" />
          </mxGeometry>
        </mxCell>
        <mxCell id="lTgHTRrTy5GVN1QDPZq1-11" value="Free memory&lt;div&gt;ft_cleanup&lt;/div&gt;" style="whiteSpace=wrap;html=1;" vertex="1" parent="1">
          <mxGeometry x="-42.5" y="-39" width="120" height="60" as="geometry" />
        </mxCell>
        <mxCell id="lTgHTRrTy5GVN1QDPZq1-15" value="Exit minishell&lt;div&gt;(exit(0))&lt;/div&gt;" style="ellipse;whiteSpace=wrap;html=1;" vertex="1" parent="1">
          <mxGeometry x="122" y="-49" width="120" height="80" as="geometry" />
        </mxCell>
        <mxCell id="lTgHTRrTy5GVN1QDPZq1-17" value="&lt;font style=&quot;font-size: 18px;&quot;&gt;Initialize minishell&lt;/font&gt;" style="rounded=0;whiteSpace=wrap;html=1;" vertex="1" parent="1">
          <mxGeometry x="-598" y="75" width="190" height="47" as="geometry" />
        </mxCell>
        <mxCell id="lTgHTRrTy5GVN1QDPZq1-21" value="" style="edgeStyle=orthogonalEdgeStyle;rounded=0;orthogonalLoop=1;jettySize=auto;html=1;" edge="1" parent="1" source="lTgHTRrTy5GVN1QDPZq1-19" target="lTgHTRrTy5GVN1QDPZq1-20">
          <mxGeometry relative="1" as="geometry" />
        </mxCell>
        <mxCell id="lTgHTRrTy5GVN1QDPZq1-19" value="call ft_init_ms" style="ellipse;whiteSpace=wrap;html=1;" vertex="1" parent="1">
          <mxGeometry x="-598" y="149" width="120" height="80" as="geometry" />
        </mxCell>
        <mxCell id="lTgHTRrTy5GVN1QDPZq1-23" value="" style="edgeStyle=orthogonalEdgeStyle;rounded=0;orthogonalLoop=1;jettySize=auto;html=1;" edge="1" parent="1" source="lTgHTRrTy5GVN1QDPZq1-20" target="lTgHTRrTy5GVN1QDPZq1-22">
          <mxGeometry relative="1" as="geometry" />
        </mxCell>
        <mxCell id="lTgHTRrTy5GVN1QDPZq1-20" value="initialize&amp;nbsp;&lt;div&gt;minishell stuct&lt;/div&gt;" style="whiteSpace=wrap;html=1;" vertex="1" parent="1">
          <mxGeometry x="-445" y="159" width="120" height="60" as="geometry" />
        </mxCell>
        <mxCell id="lTgHTRrTy5GVN1QDPZq1-26" value="" style="edgeStyle=orthogonalEdgeStyle;rounded=0;orthogonalLoop=1;jettySize=auto;html=1;entryX=0;entryY=0.5;entryDx=0;entryDy=0;" edge="1" parent="1" source="lTgHTRrTy5GVN1QDPZq1-22" target="lTgHTRrTy5GVN1QDPZq1-28">
          <mxGeometry relative="1" as="geometry">
            <mxPoint x="-72.00000000000023" y="189" as="targetPoint" />
          </mxGeometry>
        </mxCell>
        <mxCell id="lTgHTRrTy5GVN1QDPZq1-22" value="assign envp to minishell struct" style="whiteSpace=wrap;html=1;" vertex="1" parent="1">
          <mxGeometry x="-272" y="159" width="120" height="60" as="geometry" />
        </mxCell>
        <mxCell id="lTgHTRrTy5GVN1QDPZq1-28" value="minishell&amp;nbsp;&lt;div&gt;initialization&amp;nbsp;&lt;/div&gt;&lt;div&gt;f&lt;span style=&quot;background-color: initial;&quot;&gt;inished&lt;/span&gt;&lt;/div&gt;" style="ellipse;whiteSpace=wrap;html=1;" vertex="1" parent="1">
          <mxGeometry x="-100" y="149" width="120" height="80" as="geometry" />
        </mxCell>
        <mxCell id="lTgHTRrTy5GVN1QDPZq1-38" style="edgeStyle=orthogonalEdgeStyle;rounded=0;orthogonalLoop=1;jettySize=auto;html=1;exitX=1;exitY=0.5;exitDx=0;exitDy=0;entryX=0;entryY=0.5;entryDx=0;entryDy=0;" edge="1" parent="1" source="lTgHTRrTy5GVN1QDPZq1-31" target="79HeY_-FBw-1oCqKLXKL-4">
          <mxGeometry relative="1" as="geometry" />
        </mxCell>
        <mxCell id="lTgHTRrTy5GVN1QDPZq1-39" value="No" style="edgeLabel;html=1;align=center;verticalAlign=middle;resizable=0;points=[];" connectable="0" vertex="1" parent="lTgHTRrTy5GVN1QDPZq1-38">
          <mxGeometry x="-0.253" y="-4" relative="1" as="geometry">
            <mxPoint x="5" y="-21" as="offset" />
          </mxGeometry>
        </mxCell>
        <mxCell id="lTgHTRrTy5GVN1QDPZq1-41" style="edgeStyle=orthogonalEdgeStyle;rounded=0;orthogonalLoop=1;jettySize=auto;html=1;exitX=0.5;exitY=1;exitDx=0;exitDy=0;entryX=0.5;entryY=0;entryDx=0;entryDy=0;" edge="1" parent="1" source="lTgHTRrTy5GVN1QDPZq1-31" target="lTgHTRrTy5GVN1QDPZq1-40">
          <mxGeometry relative="1" as="geometry" />
        </mxCell>
        <mxCell id="lTgHTRrTy5GVN1QDPZq1-31" value="Call to end minishell?" style="rhombus;whiteSpace=wrap;html=1;" vertex="1" parent="1">
          <mxGeometry x="-217" y="363" width="80" height="80" as="geometry" />
        </mxCell>
        <mxCell id="lTgHTRrTy5GVN1QDPZq1-40" value="End REPL" style="ellipse;whiteSpace=wrap;html=1;" vertex="1" parent="1">
          <mxGeometry x="-237" y="464" width="120" height="80" as="geometry" />
        </mxCell>
        <mxCell id="lTgHTRrTy5GVN1QDPZq1-47" style="edgeStyle=orthogonalEdgeStyle;rounded=0;orthogonalLoop=1;jettySize=auto;html=1;exitX=1;exitY=0.5;exitDx=0;exitDy=0;entryX=0;entryY=0.5;entryDx=0;entryDy=0;" edge="1" parent="1" source="lTgHTRrTy5GVN1QDPZq1-46" target="79HeY_-FBw-1oCqKLXKL-2">
          <mxGeometry relative="1" as="geometry" />
        </mxCell>
        <mxCell id="lTgHTRrTy5GVN1QDPZq1-46" value="call ft_repl" style="ellipse;whiteSpace=wrap;html=1;" vertex="1" parent="1">
          <mxGeometry x="-596" y="363" width="120" height="80" as="geometry" />
        </mxCell>
        <mxCell id="lTgHTRrTy5GVN1QDPZq1-48" value="&lt;font style=&quot;font-size: 18px;&quot;&gt;Compute input&lt;/font&gt;" style="rounded=0;whiteSpace=wrap;html=1;" vertex="1" parent="1">
          <mxGeometry x="-598" y="596" width="296" height="47" as="geometry" />
        </mxCell>
        <mxCell id="lTgHTRrTy5GVN1QDPZq1-51" value="" style="edgeStyle=orthogonalEdgeStyle;rounded=0;orthogonalLoop=1;jettySize=auto;html=1;entryX=0;entryY=0.5;entryDx=0;entryDy=0;" edge="1" parent="1" source="lTgHTRrTy5GVN1QDPZq1-49" target="lTgHTRrTy5GVN1QDPZq1-52">
          <mxGeometry relative="1" as="geometry">
            <mxPoint x="-434" y="722" as="targetPoint" />
          </mxGeometry>
        </mxCell>
        <mxCell id="lTgHTRrTy5GVN1QDPZq1-49" value="call ft_front_end" style="ellipse;whiteSpace=wrap;html=1;" vertex="1" parent="1">
          <mxGeometry x="-596" y="682" width="120" height="80" as="geometry" />
        </mxCell>
        <mxCell id="lTgHTRrTy5GVN1QDPZq1-55" value="" style="edgeStyle=orthogonalEdgeStyle;rounded=0;orthogonalLoop=1;jettySize=auto;html=1;" edge="1" parent="1" source="lTgHTRrTy5GVN1QDPZq1-52" target="lTgHTRrTy5GVN1QDPZq1-54">
          <mxGeometry relative="1" as="geometry" />
        </mxCell>
        <mxCell id="lTgHTRrTy5GVN1QDPZq1-52" value="Input tokenization" style="shape=process;whiteSpace=wrap;html=1;backgroundOutline=1;" vertex="1" parent="1">
          <mxGeometry x="-398" y="692" width="120" height="60" as="geometry" />
        </mxCell>
        <mxCell id="lTgHTRrTy5GVN1QDPZq1-57" value="" style="edgeStyle=orthogonalEdgeStyle;rounded=0;orthogonalLoop=1;jettySize=auto;html=1;" edge="1" parent="1" source="lTgHTRrTy5GVN1QDPZq1-54" target="lTgHTRrTy5GVN1QDPZq1-56">
          <mxGeometry relative="1" as="geometry" />
        </mxCell>
        <mxCell id="lTgHTRrTy5GVN1QDPZq1-54" value="Input parsing" style="shape=process;whiteSpace=wrap;html=1;backgroundOutline=1;" vertex="1" parent="1">
          <mxGeometry x="-198" y="692" width="120" height="60" as="geometry" />
        </mxCell>
        <mxCell id="lTgHTRrTy5GVN1QDPZq1-65" value="" style="edgeStyle=orthogonalEdgeStyle;rounded=0;orthogonalLoop=1;jettySize=auto;html=1;" edge="1" parent="1" source="lTgHTRrTy5GVN1QDPZq1-56" target="lTgHTRrTy5GVN1QDPZq1-64">
          <mxGeometry relative="1" as="geometry" />
        </mxCell>
        <mxCell id="lTgHTRrTy5GVN1QDPZq1-56" value="Word expansion" style="shape=process;whiteSpace=wrap;html=1;backgroundOutline=1;" vertex="1" parent="1">
          <mxGeometry x="2" y="692" width="120" height="60" as="geometry" />
        </mxCell>
        <mxCell id="lTgHTRrTy5GVN1QDPZq1-59" value="" style="shape=curlyBracket;whiteSpace=wrap;html=1;rounded=1;flipH=1;labelPosition=right;verticalLabelPosition=middle;align=left;verticalAlign=middle;rotation=90;" vertex="1" parent="1">
          <mxGeometry x="-54" y="594" width="29" height="373" as="geometry" />
        </mxCell>
        <mxCell id="lTgHTRrTy5GVN1QDPZq1-60" value="Parser" style="text;strokeColor=none;fillColor=none;html=1;fontSize=24;fontStyle=1;verticalAlign=middle;align=center;" vertex="1" parent="1">
          <mxGeometry x="-89.5" y="806" width="100" height="40" as="geometry" />
        </mxCell>
        <mxCell id="lTgHTRrTy5GVN1QDPZq1-61" value="" style="shape=curlyBracket;whiteSpace=wrap;html=1;rounded=1;flipH=1;labelPosition=right;verticalLabelPosition=middle;align=left;verticalAlign=middle;rotation=90;" vertex="1" parent="1">
          <mxGeometry x="-356.5" y="705.5" width="29" height="140" as="geometry" />
        </mxCell>
        <mxCell id="lTgHTRrTy5GVN1QDPZq1-62" value="Scanner" style="text;strokeColor=none;fillColor=none;html=1;fontSize=24;fontStyle=1;verticalAlign=middle;align=center;" vertex="1" parent="1">
          <mxGeometry x="-385" y="806" width="100" height="40" as="geometry" />
        </mxCell>
        <mxCell id="lTgHTRrTy5GVN1QDPZq1-63" value="End ft_front_end" style="ellipse;whiteSpace=wrap;html=1;" vertex="1" parent="1">
          <mxGeometry x="350" y="682" width="120" height="80" as="geometry" />
        </mxCell>
        <mxCell id="lTgHTRrTy5GVN1QDPZq1-66" style="edgeStyle=orthogonalEdgeStyle;rounded=0;orthogonalLoop=1;jettySize=auto;html=1;exitX=1;exitY=0.5;exitDx=0;exitDy=0;entryX=0;entryY=0.5;entryDx=0;entryDy=0;" edge="1" parent="1" source="lTgHTRrTy5GVN1QDPZq1-64" target="lTgHTRrTy5GVN1QDPZq1-63">
          <mxGeometry relative="1" as="geometry" />
        </mxCell>
        <mxCell id="lTgHTRrTy5GVN1QDPZq1-64" value="AST completed&lt;div&gt;(Abstract Syntax Tree)&lt;/div&gt;" style="whiteSpace=wrap;html=1;" vertex="1" parent="1">
          <mxGeometry x="161" y="692" width="146" height="60" as="geometry" />
        </mxCell>
        <mxCell id="lTgHTRrTy5GVN1QDPZq1-69" style="edgeStyle=orthogonalEdgeStyle;rounded=0;orthogonalLoop=1;jettySize=auto;html=1;exitX=1;exitY=0.5;exitDx=0;exitDy=0;entryX=0;entryY=0.5;entryDx=0;entryDy=0;" edge="1" parent="1" source="lTgHTRrTy5GVN1QDPZq1-67" target="79HeY_-FBw-1oCqKLXKL-6">
          <mxGeometry relative="1" as="geometry" />
        </mxCell>
        <mxCell id="lTgHTRrTy5GVN1QDPZq1-67" value="Execute commands" style="shape=process;whiteSpace=wrap;html=1;backgroundOutline=1;" vertex="1" parent="1">
          <mxGeometry x="128" y="368" width="171" height="70" as="geometry" />
        </mxCell>
        <mxCell id="lTgHTRrTy5GVN1QDPZq1-70" value="&lt;font style=&quot;font-size: 18px;&quot;&gt;Execute commands&lt;/font&gt;" style="rounded=0;whiteSpace=wrap;html=1;" vertex="1" parent="1">
          <mxGeometry x="-593" y="937" width="296" height="47" as="geometry" />
        </mxCell>
        <mxCell id="lTgHTRrTy5GVN1QDPZq1-71" value="" style="edgeStyle=orthogonalEdgeStyle;rounded=0;orthogonalLoop=1;jettySize=auto;html=1;entryX=0;entryY=0.5;entryDx=0;entryDy=0;" edge="1" parent="1" source="lTgHTRrTy5GVN1QDPZq1-72" target="lTgHTRrTy5GVN1QDPZq1-74">
          <mxGeometry relative="1" as="geometry">
            <mxPoint x="-433" y="1063" as="targetPoint" />
          </mxGeometry>
        </mxCell>
        <mxCell id="lTgHTRrTy5GVN1QDPZq1-72" value="call ft_back_end" style="ellipse;whiteSpace=wrap;html=1;" vertex="1" parent="1">
          <mxGeometry x="-595" y="1023" width="120" height="80" as="geometry" />
        </mxCell>
        <mxCell id="lTgHTRrTy5GVN1QDPZq1-73" value="" style="edgeStyle=orthogonalEdgeStyle;rounded=0;orthogonalLoop=1;jettySize=auto;html=1;" edge="1" parent="1" source="lTgHTRrTy5GVN1QDPZq1-74" target="lTgHTRrTy5GVN1QDPZq1-76">
          <mxGeometry relative="1" as="geometry" />
        </mxCell>
        <mxCell id="lTgHTRrTy5GVN1QDPZq1-74" value="Input/Output redirection" style="shape=process;whiteSpace=wrap;html=1;backgroundOutline=1;" vertex="1" parent="1">
          <mxGeometry x="-397" y="1033" width="120" height="60" as="geometry" />
        </mxCell>
        <mxCell id="lTgHTRrTy5GVN1QDPZq1-75" value="" style="edgeStyle=orthogonalEdgeStyle;rounded=0;orthogonalLoop=1;jettySize=auto;html=1;" edge="1" parent="1" source="lTgHTRrTy5GVN1QDPZq1-76" target="lTgHTRrTy5GVN1QDPZq1-78">
          <mxGeometry relative="1" as="geometry" />
        </mxCell>
        <mxCell id="lTgHTRrTy5GVN1QDPZq1-76" value="Execution of a function, builtin utility or external command" style="shape=process;whiteSpace=wrap;html=1;backgroundOutline=1;" vertex="1" parent="1">
          <mxGeometry x="-197" y="1033" width="120" height="60" as="geometry" />
        </mxCell>
        <mxCell id="lTgHTRrTy5GVN1QDPZq1-77" value="" style="edgeStyle=orthogonalEdgeStyle;rounded=0;orthogonalLoop=1;jettySize=auto;html=1;" edge="1" parent="1" source="lTgHTRrTy5GVN1QDPZq1-78" target="lTgHTRrTy5GVN1QDPZq1-85">
          <mxGeometry relative="1" as="geometry" />
        </mxCell>
        <mxCell id="lTgHTRrTy5GVN1QDPZq1-78" value="Wait for commands exit status" style="shape=process;whiteSpace=wrap;html=1;backgroundOutline=1;" vertex="1" parent="1">
          <mxGeometry x="3" y="1033" width="120" height="60" as="geometry" />
        </mxCell>
        <mxCell id="lTgHTRrTy5GVN1QDPZq1-79" value="" style="shape=curlyBracket;whiteSpace=wrap;html=1;rounded=1;flipH=1;labelPosition=right;verticalLabelPosition=middle;align=left;verticalAlign=middle;rotation=90;" vertex="1" parent="1">
          <mxGeometry x="-240" y="930" width="29" height="373" as="geometry" />
        </mxCell>
        <mxCell id="lTgHTRrTy5GVN1QDPZq1-80" value="Executor" style="text;strokeColor=none;fillColor=none;html=1;fontSize=24;fontStyle=1;verticalAlign=middle;align=center;" vertex="1" parent="1">
          <mxGeometry x="-268" y="1147" width="100" height="40" as="geometry" />
        </mxCell>
        <mxCell id="lTgHTRrTy5GVN1QDPZq1-83" value="End ft_back_end" style="ellipse;whiteSpace=wrap;html=1;" vertex="1" parent="1">
          <mxGeometry x="351" y="1023" width="120" height="80" as="geometry" />
        </mxCell>
        <mxCell id="lTgHTRrTy5GVN1QDPZq1-84" style="edgeStyle=orthogonalEdgeStyle;rounded=0;orthogonalLoop=1;jettySize=auto;html=1;exitX=1;exitY=0.5;exitDx=0;exitDy=0;entryX=0;entryY=0.5;entryDx=0;entryDy=0;" edge="1" parent="1" source="lTgHTRrTy5GVN1QDPZq1-85" target="lTgHTRrTy5GVN1QDPZq1-83">
          <mxGeometry relative="1" as="geometry" />
        </mxCell>
        <mxCell id="lTgHTRrTy5GVN1QDPZq1-85" value="prepare result" style="whiteSpace=wrap;html=1;" vertex="1" parent="1">
          <mxGeometry x="162" y="1033" width="146" height="60" as="geometry" />
        </mxCell>
      </root>
    </mxGraphModel>
  </diagram>
</mxfile>
